<svg width="240" height="60" viewBox="0 0 240 60" fill="none" xmlns="http://www.w3.org/2000/svg">
  <!-- Logo Icon -->
  <circle cx="30" cy="30" r="28" fill="#2563EB"/>
  <path d="M30 12L15 25V44C15 45.1 15.9 46 17 46H25V35C25 33.9 25.9 33 27 33H33C34.1 33 35 33.9 35 35V46H43C44.1 46 45 45.1 45 44V25L30 12Z" fill="white"/>
  <path d="M30 12L15 25L18 25L30 15L42 25L45 25L30 12Z" fill="#1D4ED8"/>
  <circle cx="30" cy="27" r="5" fill="#2563EB" stroke="white" stroke-width="1.5"/>
  <line x1="33.5" y1="30.5" x2="37" y2="34" stroke="white" stroke-width="1.5" stroke-linecap="round"/>
  <path d="M30 39C30 39 26 36 26 34C26 32.7 27 32 28.3 32C29.3 32 30 32.7 30 33.5C30 32.7 30.7 32 31.7 32C33 32 34 32.7 34 34C34 36 30 39 30 39Z" fill="#EF4444"/>

  <!-- Text -->
  <text x="70" y="38" font-family="Inter, -apple-system, sans-serif" font-size="28" font-weight="700" fill="#0F172A">Home</text>
  <text x="146" y="38" font-family="Inter, -apple-system, sans-serif" font-size="28" font-weight="700" fill="#2563EB">Scout</text>
</svg>